<?xml version="1.0" encoding="UTF-8" standalone="yes"?>
<svg viewBox="0 0 236 236" xmlns="http://www.w3.org/2000/svg">
 <path d="m0 0v78h1c1.4465-33.177 38.684-62.774 71-56.739 7.5993 1.419 15.418 4.3706 22 8.446 3.1373 1.9427 7.932 6.7958 11.907 6.2708 4.906-0.6481 10.385-12.351 13.517-15.963 8.045-9.2775 20.02-17.912 32.576-19.015-11.932-5.0067-33.009-1-46-1h-106z" fill="#fff"/>
 <path d="m152 0v1h5l-5-1z" fill="#fb7379"/>
 <path d="m107 38c-11.491-7.856-22.713-15.296-37-16.826-35.109-3.761-67.491 24.697-69.91 59.826-2.522 36.623 21.003 69.4 46.91 92.83 20.13 18.206 43.343 33.524 67 47.02 8.418 4.802 20.104 13.19 30 13.79 5.527 0.336 9.197-4.879 12.421-8.64 8.002-9.336 15.719-18.989 22.869-29 2.169-3.036 8.43-10.244 5.607-14.377-2.9-4.244-9.975 5.469-11.451 7.416-6.892 9.095-13.694 18.214-21.036 26.961-2.268 2.703-5.495 8.123-9.5 8.069-10.895-0.146-25.605-12.745-34.91-17.839-31.676-17.339-63.82-42.844-83.656-73.23-6.1013-9.347-14.345-19.642-16.132-31-4.9769-31.644 18.931-80.615 57.788-74.561 10.665 1.6616 20.096 5.7192 29 11.777 3.4397 2.3403 9.322 9.1386 13.895 8.0332 3.442-0.8319 4.912-5.52 6.417-8.2492 3.577-6.4858 8.251-12.799 13.703-17.83 23.876-22.029 59.363-15.992 79.985 7.8295-9.255 0-19.782-0.3443-27.83 5.1435-7.376 5.0294-13.244 16.975-21.275 20.253-6.797 2.7745-16.451 1.3174-23.895 3.5162-4.885 1.4431-9.951 5.9224-15 6.1983-6.108 0.3339-12.727-5.166-19-5.9267-14.219-1.7243-34.022 1.9696-39.866 16.816-2.1414 5.4394-1.1335 12.251-1.1335 18-17.082 1.1465-19.393 30.068-16.472 43 8.6001 38.062 55.574 44.79 79.472 18 7.412 14.837 19.01 10.098 32 8.421 5.101-0.659 9.866 1.471 14.999-0.391 3.915-1.42 6.353-4.916 10.091-6.445 7.333-3.002 14.913-2.012 19.766-9.6 13.422-20.992-16.795-36.618-16.827-56.985-9e-3 -5.9682 1.984-20.164 8.184-23.083 7.657-3.6057 19.479 13.375 29.573 7.0856 7.908-4.9266 6.537-20.485 4.619-28.002-14.094-55.242-98.784-62.484-119.4-8z" fill="#e52d29"/>
 <path d="m171 0v1h5l-5-1z" fill="#ffbfbf"/>
 <path d="m176 0v1c22.471 6.3322 41.983 20.091 49.829 43 3.198 9.3357 4.04 22.199-4.039 29.471-14.323 12.891-29.222-21.3-35.275 2.5293-2.464 9.696-2.944 21.979 1.898 31 6.833 12.732 22.953 23.193 12.478 38.996-5.686 8.579-13.177 8.302-21.606 11.591-4.031 1.574-7.052 5.022-11.285 6.443-4.313 1.448-7.621-1.017-11.83-0.666-14.977 1.25-21.472 6.473-32.17-8.364-7.431 5.921-13.538 12.526-23 15.38-22.252 6.712-46.269-6.851-54.686-28.38-5.1005-13.047-4.0754-46.893 14.686-49-1.6416-20.83 14.027-36.922 36-34.822 8.011 0.7654 16.312 7.6493 24 7.3348 6.089-0.249 12.173-5.9395 18-7.7384 6.83-2.1085 16.523-0.5313 22.61-3.3773 4.234-1.9791 6.958-8.9819 10.429-12.223 9.795-9.1458 21.802-13.172 34.961-13.174-13.002-27.651-60.306-24.393-78.961-6.8295-5.653 5.323-10.155 12.009-13.784 18.83-1.304 2.449-2.971 6.72-6.298 6.8079-5.421 0.1431-14.075-9.1215-18.957-11.779-11.828-6.4395-26.906-9.145-40-5.1929-37.429 11.297-47.43 53.19-34.2 86.164 18.355 45.747 67.388 77.573 109.2 99.78 5.164 2.743 13.685 9.408 19.83 8.692 7.797-0.908 18.575-19.481 23.015-25.472 2.783-3.756 11.739-21.227 17.093-19.654 7.221 2.122-2.693 12.923-4.648 15.654-9.974 13.933-22.498 26.096-32.29 40h89v-236h-60z" fill="#fff"/>
 <path d="m147.67 1.3333l0.666 0.33334-0.666-0.33334z" fill="#e9a0a4"/>
 <path d="m176.67 1.3333l0.666 0.33334-0.666-0.33334z" fill="#e78888"/>
 <path d="m144.67 2.3333l0.666 0.33334-0.666-0.33334z" fill="#f88386"/>
 <path d="m180.67 2.3333l0.666 0.33334-0.666-0.33334z" fill="#e78888"/>
 <path d="m184.67 3.3333l0.666 0.33334-0.666-0.33334z" fill="#eeaeaa"/>
 <path d="m134 6v2l2-2h-2z" fill="#faa2a7"/>
 <path d="m153 8v1h5l-5-1z" fill="#db7876"/>
 <path d="m158 8v1h10l-10-1z" fill="#feb2b4"/>
 <path d="m174.67 9.3333l0.666 0.33334-0.666-0.33334z" fill="#fd9d9c"/>
 <path d="m181 11v1h3l-3-1z" fill="#f88d94"/>
 <path d="m56 20v1h12l-12-1z" fill="#fd9d9c"/>
 <path d="m72.667 21.333l0.6666 0.3334-0.6666-0.3334z" fill="#eb9393"/>
 <path d="m48.667 22.333l0.6666 0.3334-0.6666-0.3334z" fill="#f88077"/>
 <path d="m76.667 22.333l0.6666 0.3334-0.6666-0.3334z" fill="#e78888"/>
 <path d="m44.667 23.333l0.6666 0.3334-0.6666-0.3334z" fill="#f88d94"/>
 <path d="m80.667 23.333l0.6666 0.3334-0.6666-0.3334z" fill="#faa2a7"/>
 <path d="m56 28v1h11l-11-1z" fill="#e57b75"/>
 <path d="m196 29v1l13-2-13 1z" fill="#cc6462"/>
 <path d="m53 29v1h5l-5-1z" fill="#feb2b4"/>
 <path d="m69 29v1h3l-3-1z" fill="#faa2a7"/>
 <path d="m74.667 30.333l0.6666 0.3334-0.6666-0.3334z" fill="#eb9393"/>
 <path d="m192.67 30.333l0.666 0.3334-0.666-0.3334z" fill="#f88386"/>
 <path d="m77 31v1h3l-3-1z" fill="#e9a0a4"/>
 <path d="m189.67 31.333l0.666 0.3334-0.666-0.3334z" fill="#bf797b"/>
 <path d="m44.667 32.333l0.6666 0.3334-0.6666-0.3334z" fill="#feb2b4"/>
 <path d="m186.67 32.333l0.666 0.3334-0.666-0.3334m-103 1l0.6666 0.3334-0.6666-0.3334z" fill="#e67172"/>
 <path d="m198 36v1h7l-7-1z" fill="#cc6462"/>
 <path d="m105.67 37.333l0.666 0.3334-0.666-0.3334z" fill="#faa2a7"/>
 <path d="m167 48l12-11-12 11z" fill="#c43d44"/>
 <path d="m195.67 37.333l0.666 0.3334-0.666-0.3334z" fill="#e57b75"/>
 <path d="m168 65c-10.329-1.9176-22.058-1.7633-32 1.9514-4.582 1.712-10.289 7.989-14.884 8.3634-3.436 0.28-9.617-5.1862-13.116-6.5-7.847-2.9465-18.042-2.6615-26-0.2207-14.617 4.4833-18.851 22.186-7.7863 33.258 11.663 11.67 14.301-14.858 22.787-18.49 7.4602-3.1931 17.507 7.9116 21.909 12.638 6.849 7.354 12.854 16.638 13.075 27 0.239 11.257-7.586 28.024 6.016 34.682 16.685 8.167 21.927-10.919 20.999-22.682-22.115-2.006-6.789-22.018 8.941-17.682 3.826 1.055 3.89 4.529 2.486 7.682-1.843 4.137-5.688 7.055-4.854 12 2.999 17.777 28.132 14.757 30.111-2 1.145-9.706-8.686-16.506-13.206-24-8.442-13.994-7.847-31.017 0.399-44.996 10.636-18.035 17.124 0.9942 29.158 2.7484 9.903 1.4435 8.719-14.942 6.716-20.752-8.892-25.791-49.705-3.1635-50.751 17z" fill="#fff"/>
 <path d="m223.33 37.667l0.334 0.6666-0.334-0.6666z" fill="#fb7379"/>
 <path d="m192.67 38.333l0.666 0.3334-0.666-0.3334z" fill="#faa2a7"/>
 <path d="m225.33 42.667l0.334 0.6666-0.334-0.6666z" fill="#fa8d8b"/>
 <path d="m227 48v5h1l-1-5z" fill="#f88d94"/>
 <path d="m219.33 49.667l0.334 0.6666-0.334-0.6666z" fill="#e78888"/>
 <path d="m148 55v1h14l-14-1z" fill="#eb9393"/>
 <path d="m144.67 56.333l0.666 0.3334-0.666-0.3334z" fill="#fa8d8b"/>
 <path d="m139 57v1h3l-3-1m51 0v1h5l-5-1z" fill="#feafaa"/>
 <path d="m90 58v1h10l-10-1z" fill="#ffbfbf"/>
 <path d="m136.67 58.333l0.666 0.3334-0.666-0.3334z" fill="#fa8d8b"/>
 <path d="m85 59v1h3l-3-1z" fill="#fd9d9c"/>
 <path d="m81.667 60.333l0.6666 0.3334-0.6666-0.3334z" fill="#f88386"/>
 <path d="m78.667 61.333l0.6666 0.3334-0.6666-0.3334z" fill="#db7876"/>
 <path d="m227 61v3h1l-1-3z" fill="#fa8d8b"/>
 <path d="m4.3333 62.667l0.33334 0.6666-0.33334-0.6666z" fill="#f88386"/>
 <path d="m167 62l-2 2v1c2.251-0.4733 3.118-0.8603 2-3z" fill="#fdc9c3"/>
 <path d="m219.33 62.667l0.334 0.6666-0.334-0.6666z" fill="#e59a93"/>
 <path d="m147 63v1h15l-15-1z" fill="#fdc9c3"/>
 <path d="m162 63v1h3l-3-1z" fill="#e67172"/>
 <path d="m143 64v1h3l-3-1z" fill="#e9a0a4"/>
 <path d="m3.3333 65.667l0.33334 0.6666-0.33334-0.6666z" fill="#d98382"/>
 <path d="m140.67 65.333l0.666 0.3334-0.666-0.3334z" fill="#feafaa"/>
 <path d="m226 65v3h1l-1-3z" fill="#e78888"/>
 <path d="m88 66v1h13l-13-1z" fill="#e59a93"/>
 <path d="m84.667 67.333l0.6666 0.3334-0.6666-0.3334z" fill="#e57b75"/>
 <path d="m2.3333 68.667l0.33334 0.6666-0.33334-0.6666z" fill="#f88d94"/>
 <path d="m81.667 68.333l0.6666 0.3334-0.6666-0.3334z" fill="#faa2a7"/>
 <path d="m109.67 69.333l0.666 0.3334-0.666-0.3334z" fill="#fb7379"/>
 <path d="m200 69c4.837 6.719 10.953 9.3786 19 7l-19-7z" fill="#c62930"/>
 <path d="m211 69v1h5l-5-1z" fill="#faa2a7"/>
 <path d="m10.333 70.667l0.3334 0.6666-0.3334-0.6666z" fill="#e78888"/>
 <path d="m179.33 72.667l0.334 0.6666-0.334-0.6666z" fill="#e9a0a4"/>
 <path d="m8 74l-1 22h1v-22z" fill="#c43d44"/>
 <path d="m9 74v4h1l-1-4z" fill="#ffbfbf"/>
 <path d="m62.333 74.667l0.3334 0.6666-0.3334-0.6666z" fill="#f88077"/>
 <path d="m178 75v3h1l-1-3z" fill="#feafaa"/>
 <path d="m210 77v1h6l-6-1z" fill="#faa2a7"/>
 <path d="m8 78v4h1l-1-4z" fill="#d98382"/>
 <path d="m185 79v3h1l-1-3z" fill="#e78888"/>
 <path d="m177 80v4h1l-1-4z" fill="#db7876"/>
 <path d="m8 82v12h1l-1-12z" fill="#fdc9c3"/>
 <path d="m60 82v7h1l-1-7z" fill="#db7876"/>
 <path d="m98 82v1h4l-4-1z" fill="#f88d94"/>
 <path d="m102.67 83.333l0.666 0.3334-0.666-0.3334z" fill="#db7876"/>
 <path d="m67 84v4h1l-1-4z" fill="#e75b65"/>
 <path d="m184 84v4h1l-1-4z" fill="#eb9393"/>
 <path d="m176 85v11h1l-1-11z" fill="#feafaa"/>
 <path d="m184 88v8h1l-1-8z" fill="#ffbfbf"/>
 <path d="m99.667 90.333l0.6663 0.3334-0.6663-0.3334z" fill="#feafaa"/>
 <path d="m93 113l-17 4c-1.283-2.506-2.6943-4.631-4.6196-6.716-2.5622-2.775-6.9658-8.07-11.195-7.738-9.6591 0.758-9.2565 27.12-7.652 33.435 2.4659 9.706 14.862-0.331 19.467 8.019l-15 2c4.2926 7.627 10.306 1.686 17 1l-9 7v2c17.59 11.855 53.485 11.92 56-16-10.898-0.129-6.376-5.821 2-6l1-6c-4.66 1.333-10.83 6.312-14 1 3.862-1.382 12.562-3.677 13.642-8.213 2.086-8.76-8.938-19.983-14.812-24.887-2.253-1.8816-6.209-5.2784-9.4365-4.1883-6.1395 2.0734-6.3901 16.176-6.3935 21.289z" fill="#fff"/>
 <path d="m88.333 92.667l0.3334 0.6666-0.3334-0.6666z" fill="#fd9d9c"/>
 <path d="m56 93v1h5l-5-1z" fill="#faa2a7"/>
 <path d="m8 94v5h1l-1-5z" fill="#db5f63"/>
 <path d="m54 94v2l2-2h-2z" fill="#fd9d9c"/>
 <path d="m109 95l9 10c-1.453-4.801-4.073-8.5384-9-10z" fill="#c43d44"/>
 <path d="m0 96v3h1l-1-3z" fill="#f88077"/>
 <path d="m87.333 96.667l0.3334 0.6666-0.3334-0.6666z" fill="#e57b75"/>
 <path d="m95.333 96.667l0.3334 0.6666-0.3334-0.6666z" fill="#eb9393"/>
 <path d="m0 99v137h143v-1c-45.216-18.825-95.824-51.97-123.48-93-9.317-13.822-12.497-28.508-19.518-43z" fill="#fff"/>
 <path d="m8 99c0.07509 8.399 4.0181 16.693 8 24h1l-9-24z" fill="#c03539"/>
 <path d="m9 99v3h1l-1-3z" fill="#faa2a7"/>
 <path d="m86.333 99.667l0.3334 0.6663-0.3334-0.6663z" fill="#f88d94"/>
 <path d="m94.333 99.667l0.3334 0.6663-0.3334-0.6663z" fill="#e78888"/>
 <path d="m172 101h-1c-0.074 4.442-1.657 5.664-6 6v-6l6-1c-4.329-1.7459-10.927 2.345-6.971 7.257 4.402 5.467 9.178-1.712 7.971-6.257z" fill="#c62930"/>
 <path d="m165 101v6c5.32-0.177 6.441-1.846 7-7l-7 1z" fill="#f3311f"/>
 <path d="m1 101v3h1l-1-3z" fill="#db7876"/>
 <path d="m59.667 101.33l0.6666 0.334-0.6666-0.334z" fill="#fa8d8b"/>
 <path d="m57.333 102.67l0.3334 0.666-0.3334-0.666z" fill="#faa2a7"/>
 <path d="m162 102v4h1l-1-4z" fill="#f88386"/>
 <path d="m178.33 102.67l0.334 0.666-0.334-0.666z" fill="#eb9393"/>
 <path d="m186.33 102.67l0.334 0.666-0.334-0.666z" fill="#e57b75"/>
 <path d="m10.333 104.67l0.3334 0.666-0.3334-0.666z" fill="#e59a93"/>
 <path d="m78 105v1h5l-5-1z" fill="#fd9d9c"/>
 <path d="m138 106v1h5l-5-1z" fill="#d76e72"/>
 <path d="m137.6 108.03c-3.919 3.081 0.322 10.852 5.08 7.924 5.253-3.233 0.124-12.015-5.08-7.924z" fill="#c03539"/>
 <path d="m92 108v4h-8v1h9l-1-5z" fill="#faa2a7"/>
 <path d="m138.6 109.05c-3.081 2.335 0.521 7.336 3.655 4.908 3.128-2.425-0.431-7.35-3.655-4.908z" fill="#e52d29"/>
 <path d="m170.67 108.33l0.666 0.334-0.666-0.334m-116.33 1.334l0.3334 0.666-0.3334-0.666z" fill="#feb2b4"/>
 <path d="m135 109v4h1l-1-4z" fill="#d76e72"/>
 <path d="m145 109v5h1l-1-5z" fill="#cc6462"/>
 <path d="m165 109v1h5l-5-1z" fill="#f88d94"/>
 <path d="m3.3333 110.67l0.33334 0.666-0.33334-0.666z" fill="#feafaa"/>
 <path d="m13.333 113.67l0.3334 0.666-0.3334-0.666z" fill="#e57b75"/>
 <path d="m52.333 115.67l0.3334 0.666-0.3334-0.666z" fill="#d98382"/>
 <path d="m76.667 116.33l0.6666 0.334-0.6666-0.334z" fill="#eeaeaa"/>
 <path d="m99 116v1h4l-4-1z" fill="#feb2b4"/>
 <path d="m99.318 117.76c-5.1021 2.395-0.8245 10.649 4.5351 8.48 6.152-2.489 1.234-11.189-4.5351-8.48z" fill="#e52d29"/>
 <path d="m131 117v14h1l-1-14z" fill="#fb7379"/>
 <path d="m158 117v1h4l-4-1z" fill="#eb9393"/>
 <path d="m162 117v1h9l-9-1z" fill="#d76e72"/>
 <path d="m6.3333 118.67l0.33334 0.666-0.33334-0.666z" fill="#faa2a7"/>
 <path d="m155.67 118.33l0.666 0.334-0.666-0.334z" fill="#f88d94"/>
 <path d="m146 128h1c2.742-8.911 15.231-8.995 23-9l-3 11c3.88-3.424 3.986-7.042 4-12-7.787 0-25.368-1.465-25 10z" fill="#c03539"/>
 <path d="m171 118v5h1l-1-5z" fill="#feb2b4"/>
 <path d="m43 120v13h1l-1-13z" fill="#db7876"/>
 <path d="m51 120v12h1l-1-12z" fill="#ffbfbf"/>
 <path d="m96 120v4h1l-1-4z" fill="#f88386"/>
 <path d="m72.317 125.05c-5.2526 3.233-0.1236 12.015 5.0795 7.924 3.9198-3.081-0.3218-10.852-5.0795-7.924z" fill="#f3311f"/>
 <path d="m201.33 124.67l0.334 0.666-0.334-0.666z" fill="#e57b75"/>
 <path d="m145.33 125.67l0.334 0.666-0.334-0.666z" fill="#d76e72"/>
 <path d="m69 127v5h1l-1-5z" fill="#cc6462"/>
 <path d="m79 127v5h1l-1-5z" fill="#e67172"/>
 <path d="m100 127v1h4l-4-1m103.33 1.667l0.334 0.666-0.334-0.666z" fill="#faa2a7"/>
 <path d="m110 129v3h1l-1-3z" fill="#e9a0a4"/>
 <path d="m123 130v4h1l-1-4z" fill="#db5f63"/>
 <path d="m88.667 131.33l0.6666 0.334-0.6666-0.334z" fill="#ffbfbf"/>
 <path d="m90 140c-0.3831 5.064-3.3811 9.509-8 5l-4 1c3.7267 12.846 29.731 2.113 30-9-3.42 1.337-4.193 4.57-7.22 6.172-7.8225 4.141-3.9699-9.505-3.78-12.172-6.0546 0.054-18.991 5.52-7 9z" fill="#e52d29"/>
 <path d="m51.333 132.67l0.3334 0.666-0.3334-0.666z" fill="#e78888"/>
 <path d="m86.667 132.33l0.6666 0.334-0.6666-0.334z" fill="#f88386"/>
 <path d="m130 132v4h1l-1-4z" fill="#e78888"/>
 <path d="m164 132v3h1l1-3h-2z" fill="#fa8d8b"/>
 <path d="m151.67 133.33l0.666 0.334-0.666-0.334z" fill="#f88386"/>
 <path d="m204 133v5h1l-1-5z" fill="#feb2b4"/>
 <path d="m72 134v1h5l-5-1z" fill="#d76e72"/>
 <path d="m83.333 134.67l0.3334 0.666-0.3334-0.666z" fill="#e78888"/>
 <path d="m116 134v1h7l-7-1z" fill="#f88077"/>
 <path d="m154 134v1h3l-3-1z" fill="#e9a0a4"/>
 <path d="m52.333 136.67l0.3334 0.666-0.3334-0.666z" fill="#e67172"/>
 <path d="m112 136v3h1l-1-3z" fill="#d76e72"/>
 <path d="m195 136v3h1l-1-3z" fill="#eb9393"/>
 <path d="m103 138v3h1l-1-3z" fill="#eeaeaa"/>
 <path d="m129 138v7h1l-1-7z" fill="#fa8d8b"/>
 <path d="m159.33 138.67l0.334 0.666-0.334-0.666z" fill="#e78888"/>
 <path d="m113 139v1l9 1-9-2z" fill="#fdc9c3"/>
 <path d="m59 140v1h8l-8-1z" fill="#feafaa"/>
 <path d="m203.33 140.67l0.334 0.666-0.334-0.666z" fill="#fa8d8b"/>
 <path d="m54 141v1h5l-5-1z" fill="#e67172"/>
 <path d="m71 141v3h1l-1-3z" fill="#d98382"/>
 <path d="m121.33 141.67l0.334 0.666-0.334-0.666z" fill="#db7876"/>
 <path d="m46.333 142.67l0.3334 0.666-0.3334-0.666z" fill="#fd9d9c"/>
 <path d="m64 144v1h6l-6-1z" fill="#db7876"/>
 <path d="m79.667 144.33l0.6666 0.334-0.6666-0.334z" fill="#feafaa"/>
 <path d="m98 144v1h3l-3-1z" fill="#f88077"/>
 <path d="m77 148h1l2-2c-2.1397-1.118-2.5268-0.251-3 2z" fill="#d76e72"/>
 <path d="m73 147v3h1l-1-3z" fill="#e9a0a4"/>
 <path d="m95 148v1h7l-7-1z" fill="#cc6462"/>
 <path d="m176 149v1h9l-9-1z" fill="#fa8d8b"/>
 <path d="m165.67 150.33l0.666 0.334-0.666-0.334z" fill="#fb7379"/>
 <path d="m165 151l-3 7 10-2v-2l-7-3z" fill="#fff"/>
 <path d="m82 152v1h6l-6-1z" fill="#e78888"/>
 <path d="m189 154v1h3l-3-1z" fill="#d98382"/>
 <path d="m186 155v1h3l-3-1z" fill="#fa8d8b"/>
 <path d="m179 156v1h8l-8-1z" fill="#fdc9c3"/>
 <path d="m150.67 157.33l0.666 0.334-0.666-0.334m-3.667 0.667v1h3l-3-1z" fill="#feafaa"/>
 <path d="m162 158v1h4l-4-1z" fill="#d76e72"/>
 <path d="m141 159v1h6l-6-1z" fill="#cc6462"/>
 <path d="m76.667 162.33l0.6666 0.334-0.6666-0.334z" fill="#faa2a7"/>
 <path d="m100.67 162.33l0.666 0.334-0.666-0.334z" fill="#f88d94"/>
 <path d="m156.67 162.33l0.666 0.334-0.666-0.334z" fill="#fb7379"/>
 <path d="m78.667 163.33l0.6666 0.334-0.6666-0.334z" fill="#e78888"/>
 <path d="m96.667 163.33l0.6666 0.334-0.6666-0.334m-15.667 0.667v1h12l-12-1z" fill="#feafaa"/>
 <path d="m152.67 164.33l0.666 0.334-0.666-0.334z" fill="#faa2a7"/>
 <path d="m161 164v1h7l-7-1z" fill="#eeaeaa"/>
 <path d="m136.67 166.33l0.666 0.334-0.666-0.334z" fill="#eb9393"/>
 <path d="m138 166v1h8l-8-1z" fill="#db5f63"/>
 <path d="m75 170v1h3l-3-1z" fill="#faa2a7"/>
 <path d="m99 170v1h3l-3-1z" fill="#e78888"/>
 <path d="m79 171v1h3l-3-1z" fill="#feafaa"/>
 <path d="m85 172v1h7l-7-1z" fill="#ffbfbf"/>
 <path d="m181 179v1h4l-4-1z" fill="#f88d94"/>
 <path d="m177 186c4.615-3.35 8.401-5.75 8 2 5.193-7.649-4.751-10.114-8-2m-119-4l6 5-6-5z" fill="#c03539"/>
 <path d="m187 182v3h1l-1-3z" fill="#f88d94"/>
 <path d="m141.67 234.33l0.666 0.334-0.666-0.334z" fill="#d76e72"/>
 <path d="m143 235v1h4l-4-1z" fill="#ff5d65"/>
</svg>
