<?xml version="1.0" encoding="UTF-8" standalone="yes"?>
<svg viewBox="0 0 315 247" xmlns="http://www.w3.org/2000/svg">
 <path d="m0 0v52c0 5.4552-1.9929 15.884 1.0278 20.61 6.5965 10.319 23.226 3.4652 30.972-0.6096-11.082 9.1053-19.505 6.572-32 3v172h315v-55c-9.003 2.854-15.383 1.324-24-2v-1c5.931 2.284 16.543 6.699 22.397 1.836 3.06-2.543 1.603-10.291 1.603-13.836v-41c-5.008 0.976-8.548 1.327-9 7h5v1h-6v-8l10-1v-135h-34c0.918 8.9624 7.402 16.446 16 19-12.536-0.018-12.444-18.071-22.019-18.941-29.786-2.7058-61.059-0.05864-90.981-0.05864h-184z" fill="#fff"/>
 <path d="m279 0c2.685 9.2605 7.754 18.144 18 20v-1l-18-19m-212 7v1l14-1h-14m174 1v1l13-1h-13m-53 13v8l10 1v-1l-9-1v-6c6.277-0.0527 11.758-1.0647 16-6l-17 5m58 1v6l-8 1v1l9-1-1-7z" fill="#eae9e9"/>
 <path d="m204.67 38.333l0.666 0.3334-0.666-0.3334z" fill="#b19b93"/>
 <path d="m197 62c-7.577-10.191 0.614-19.921 13-19.92 7.748 5e-4 13.606 5.3773 17 11.92 3.71-0.5955 5.806-1.3132 7-5l-5 1c-5.678-16.656-31.38-14.81-39.347-0.9606-3.535 6.1445-0.416 14.675 7.347 12.961z" fill="#613323"/>
 <path d="m215.67 38.333l0.666 0.3334-0.666-0.3334z" fill="#c6b6b0"/>
 <path d="m67 42v1l14 1c-4.0185-3.7654-8.9145-3.2107-14-2z" fill="#eae9e9"/>
 <path d="m197 41l1 1-1-1z" fill="#bca9a2"/>
 <path d="m222 41l1 1-1-1z" fill="#b19b93"/>
 <path d="m296 63c-4.494-12.66 0.511-21.791 15-20-12.286-8.3933-25.925 10.359-15 20z" fill="#eae9e9"/>
 <path d="m193 59l20-5v4h1v-3c5.388 2.5768 7.466 1.9613 13 0-3.874-19.202-38.537-15.808-34 4z" fill="#d7a55f"/>
 <path d="m269 42l1 20h1c1.53-6.4276 2.115-14.47-2-20z" fill="#eae9e9"/>
 <path d="m193 44l1 1-1-1m-2 2l1 1-1-1z" fill="#a79088"/>
 <path d="m3 47l1 14h1l-2-14z" fill="#eae9e9"/>
 <path d="m234 48v1h6l-6-1z" fill="#d0c2bd"/>
 <path d="m229.67 49.333l0.666 0.3334-0.666-0.3334z" fill="#c6b6b0"/>
 <path d="m234 49l-1 4h7v-1l-6-3z" fill="#8b5c38"/>
 <path d="m235 49v3c6.138 0.5359 12.427 2.584 16.815 7.1049 2.312 2.3823 3.79 7.171 6.68 8.7632 2.69 1.4817 6.768-0.89 9.505-1.4005 4.741-0.8843 9.281 0.16 14 0.5324-3.206-7.9756-13.578-1.7886-19.79-3.7731-3.586-1.1456-5.481-6.3337-8.303-8.6976-5.491-4.5985-12.011-5.5103-18.907-5.5293z" fill="#613323"/>
 <path d="m243.67 49.333l0.666 0.3334-0.666-0.3334z" fill="#c6b6b0"/>
 <path d="m214 58h-1v-4l-18 5v1c4.173-0.0115 16.564-4.1714 18.828 0.4336 2.087 4.2446-8.55 15.817-10.831 19.566-11.743 19.306-33.782 25.994-33.997 52h1l7-24h1v5h1c5.553-7.719 14.176-12.014 23-15-3.642-16.8 19.563-37.615 33-44l-21 4z" fill="#c3894b"/>
 <path d="m202 98c-8.556 2.028-19.058 6.722-23 15h-1v-5h-1c-0.208 8.859-6.294 15.373-7.571 24-1.725 11.653 6.38 29.775 20.571 26.606 9.054-2.021 16.617-12.293 19.628-20.606 2.683-7.407-8.7-16.946-9.915-25-0.899-5.957 3.996-9.832 9.287-11.362 10.077-2.9128 32.458 4.689 32.548 17.362 0.076 10.808-17.226 15.637-25.548 16 0 10.297-1.801 21.926 4.133 30.985 10.234 15.627 31.912 5.82 38.54-7.985 4.949-10.308 5.539-22.085 2.285-33-1.4-4.694-4.817-9.16-5.474-14-0.641-4.719 1.982-10.285 2.646-15 0.562-3.9815 0.372-20.227 5.014-21.002 12.488-2.0853 2.923 22.436 15.841 20.576 7.981-1.1493 9.246-15.53 7.581-21.572-4.024-14.614-19.046-3.2627-27.292-6.4043-7.482-2.8507-7.849-13.246-18.274-14.408-16.312-1.8166-43.619 28.726-39 44.811z" fill="#d7a55f"/>
 <path d="m252 53l1 1-1-1z" fill="#b19b93"/>
 <path d="m83 70l3.3588 25 5.2184 13.985-7.5772 9.054-16 17.961c-1.3054-10.109-7.1086-28.804-18-32 1.1762 8.8 9.3808 16.504 12.575 25 5.7569 15.312 1.1707 31.741 7.348 47 3.1427 7.763 9.0272 14.937 18.077 13l-1 17c-19.389-6.602-30.804-22.761-32.83-43-0.9783-9.778 1.1945-19.551-2.2245-29-2.7253-7.532-6.4502-14.595-11.286-21-1.6674-2.209-5.7414-5.637-5.0687-8.772 1.3381-6.2341 10.546-0.406 13.408 0.772l1-4c-5.7293-2.9128-22.546-6.9913-18.667 6 0.7064 2.366 5.7735 10.751 7.6667 8h1c0.5978 11.054 9.3052 20.537 10.714 32 2.156 17.545-2.7059 33.712-2.7137 51-0.0038 8.512-11.18 19.519-4.6821 26.671 8.2491 9.08 26.278 10.725 37.682 12.575 3.7356 0.606 10.149 2.373 13.776 1.061 7.5705-2.739 1.3805-12.954 12.224-13.307l2 12h-1l-2-10h-5l-3 12 38 1 15.606-1.028 4.394-11.972h-9c-3.137-24.824 20.694-36.314 42-40.6 6.688-1.346 17.124 0.579 22-4.4-7.215-2.133-34.055-2.189-36 7l-5-3-10 7c0-8.656 3.739-29.197-5-34l-1 1c3.262 14.264 7.914 39.305-10.09 46.687-4.539 1.861-11.159-0.483-15.91-0.687 8.628-14.333 14.396-34.984-9-35v3c2.356 0.05 4.762 0.022 6.998 0.894 17.551 6.842-2.515 25.239-4.998 34.106l22 2c1e-3 10.043 4.465 18.952-5 26l5-10c-22.548 0-56.04-1.562-52.826-33 0.3668-3.588 0.9404-9.667 3.0008-12.682 2.6796-3.922 11.603-2.72 15.81-5.451 11.413-7.409 13.015-21.558 13.015-33.867 11.612 2.765 21.906-3.141 32-8l13.08 36 5.92 16c-0.033-12.079-3.461-24.771-7.811-36-2.54-6.555-8.12-13.847-7.189-21l4 1c-1.801-5.624-0.1-13.154 6-15-6.194 19.042-2.066 52.025 25 47l9 8-6-10c6.936-3.598 11.704-10.032 15-17h1l3 24h-12c1.454 8.714 9.455 2.172 15 4.186 4.346 1.579 7.27 5.394 12 6.424 13.632 2.968 28.931-7.868 33-20.61h1l6 17h1l-5.105-24-0.564-22-5.77-18 3.439-26c6.158 5.4153 5.37 15.276 15.996 14.941 10.33-0.3262 16.487-20.142 8.004-25.941 1.014 5.5431-0.937 26.182-10.956 21.762-3.947-1.7409-8.65-20.519-15.056-13.158-2.917 3.352-2.484 11.178-3.122 15.396-0.691 4.568-3.097 9.343-2.613 14 0.509 4.901 3.872 9.354 5.387 14 3.385 10.374 2.887 21.025-1.517 31-4.923 11.153-20.995 23.735-33.108 15.196-7.605-5.361-10.007-14.42-10.845-23.196-1.874-19.607 19.051-10.061 25.74-25.039 2.782-6.231-2.004-12.415-6.949-15.856-9.747-6.783-21.292-7.4513-31.961-3.105l1 5c8.423-5.785 33.912-4.642 34.248 9.999 0.298 12.968-21.391 11.971-28.248 9.001l-1 1c6.241 16.986-19.917 40.767-33.362 21.999-10.504-14.662-5.575-36.517 6.688-48.67 4.127-4.0907 10.238-5.5963 14.26-9.7187 4.359-4.4684 7.118-11.348 10.468-16.61 2.52-3.9586 8.112-9.0553 8.495-13.891 0.71-8.979-15.135-1.0806-17.549 1.8912l13-2c-3.902 6.8498-11.835 24.59-19.104 27.802-6.233 2.7534-21.583-1.8017-28.896-1.8017l-4-31c-10.325 2.0547-16.995 12.609-27 15.49-17.386 5.006-30.958-1.7113-48-2.49z" fill="#613323"/>
 <path d="m158.33 59.667l0.334 0.6666-0.334-0.6666z" fill="#8f6f64"/>
 <path d="m196 60l-2 3v1l6-4h-4z" fill="#745144"/>
 <path d="m159.33 62.667l0.334 0.6666-0.334-0.6666z" fill="#987c71"/>
 <path d="m206.67 62.333l0.666 0.3334-0.666-0.3334z" fill="#d0c2bd"/>
 <path d="m267 62v1h4l-4-1z" fill="#a1887e"/>
 <path d="m271 62v1h8l-8-1z" fill="#7d5c51"/>
 <path d="m140 83l-30-3.3896-23-4.6104 12.397 23.039 2.6034 23.961 9-1-7 4c2.685 5.303 5.862 4.451 10 1l1 1-4 6c5.784 2.763 15.468-0.784 13.292-8.91-0.882-3.297-5.535-5.283-4.75-9.089 1.388-6.731 11.651-8.482 16.294-4.487 6.71 5.771-6.497 11.923 2.208 19.092 6.071 4.999 11.616 3.139 16.956-1.606v-1l-10-9 12 7 3-10h-13v-3h14l-3.617-19-1.383-30c-7.105 2.1849-13.82 13.157-16 20z" fill="#f7b12b"/>
 <path d="m202.67 63.333l0.666 0.3334-0.666-0.3334z" fill="#bca9a2"/>
 <path d="m263.67 63.333l0.666 0.3334-0.666-0.3334z" fill="#987c71"/>
 <path d="m281.67 63.333l0.666 0.3334-0.666-0.3334z" fill="#c6b6b0"/>
 <path d="m281 64c0.946 2.7791 8.432 15.132 10 8-3.805-1.0699-6.474-4.0448-7-8h-3z" fill="#745144"/>
 <path d="m122 76v1l15 1v1l-4 1 7 3 12-18c-11.547 4.3766-16.917 11-30 11z" fill="#e69a07"/>
 <path d="m283 65l7 8c-0.889-4.3912-2.647-6.7478-7-8z" fill="#613323"/>
 <path d="m207 66l1 1-1-1z" fill="#b3a19b"/>
 <path d="m83.667 69.333l0.6666 0.3334-0.6666-0.3334z" fill="#a1887e"/>
 <path d="m82 70v8h1l-1-8z" fill="#d4cbc8"/>
 <path d="m161.33 70.667l0.334 0.6666-0.334-0.6666m-69.666 0.6666l0.6666 0.3334-0.6666-0.3334z" fill="#a1887e"/>
 <path d="m0 73c6.5548 9.9991 25.18 6.9546 32-1-13.108 4.77-18.636 6.5552-32 1z" fill="#eae9e9"/>
 <path d="m96.667 72.333l0.6666 0.3334-0.6666-0.3334z" fill="#c6b6b0"/>
 <path d="m121 72v1h12l-12-1z" fill="#7d5c51"/>
 <path d="m100.67 73.333l0.666 0.3334-0.666-0.3334z" fill="#c6b6b0"/>
 <path d="m86 76l3-1-3 1z" fill="#b77939"/>
 <path d="m104.67 74.333l0.666 0.3334-0.666-0.3334z" fill="#c6b6b0"/>
 <path d="m158 74v13h1l-1-13z" fill="#c58627"/>
 <path d="m260 81c5.417-1.1147 8.217 0.8176 10 6 3.906-9.3328-9.595-18.333-10-6z" fill="#c3894b"/>
 <path d="m108.67 75.333l0.666 0.3334-0.666-0.3334z" fill="#bca9a2"/>
 <path d="m162 75v13h8v-1h-7l-1-12z" fill="#a1887e"/>
 <path d="m287 75v7h1l-1-7z" fill="#a36a26"/>
 <path d="m291 75v7h1l-1-7z" fill="#bca9a2"/>
 <path d="m87 76l8.3009 29 3.6991 19 5-1v-1l-4.3179-23.961-7.5486-10.043-5.1335-11.996z" fill="#e69a07"/>
 <path d="m227 85c4.535-12.556-9.847-6.667 0 0z" fill="#fff"/>
 <path d="m116 78v1h21l-21-1z" fill="#db9f27"/>
 <path d="m198 80l1 1-1-1z" fill="#b3a19b"/>
 <path d="m83 81v3h1l-1-3z" fill="#8f6f64"/>
 <path d="m221 81l3 2v-1l-3-1z" fill="#d4cbc8"/>
 <path d="m221.3 84.086c-3.283 1.9306-1.523 8.1413 2.286 5.8272 3.244-1.9711 1.665-8.1504-2.286-5.8272z" fill="#613323"/>
 <path d="m244 92c5.748-12.024-10.613-7.186 0 0z" fill="#fff"/>
 <path d="m263 84v3h1l-1-3z" fill="#bca9a2"/>
 <path d="m290.33 84.667l0.334 0.6666-0.334-0.6666z" fill="#b19b93"/>
 <path d="m121 88v1l23 1c-6.296-5.5001-15.606-4.344-23-2z" fill="#e4b151"/>
 <path d="m266.33 87.667l0.334 0.6666-0.334-0.6666z" fill="#bca9a2"/>
 <path d="m84.333 88.667l0.3334 0.6666-0.3334-0.6666z" fill="#c6b6b0"/>
 <path d="m177 88v1h3l-3-1z" fill="#b3a19b"/>
 <path d="m238.33 88.667l0.334 0.6666-0.334-0.6666z" fill="#d4cbc8"/>
 <path d="m289.33 88.667l0.334 0.6666-0.334-0.6666z" fill="#d0c2bd"/>
 <path d="m183 89v1h3l-3-1z" fill="#b19b93"/>
 <path d="m217 89c0.652 3.9108 2.136 4.6998 6 5l-6-5z" fill="#fff"/>
 <path d="m239.67 89.333l0.666 0.3334-0.666-0.3334z" fill="#a79088"/>
 <path d="m157.33 90.667l0.334 0.6666-0.334-0.6666z" fill="#b0731d"/>
 <path d="m188 90v1h4l-4-1z" fill="#d4cbc8"/>
 <path d="m238.3 91.086c-3.283 1.9306-1.523 8.1413 2.286 5.8272 3.244-1.9711 1.665-8.1505-2.286-5.8272z" fill="#613323"/>
 <path d="m161 91l4 22 4 1 16-20-24-3z" fill="#d7a55f"/>
 <path d="m171 91v1h4l-4-1z" fill="#8b5c38"/>
 <path d="m221 91v1l3 1-3-2z" fill="#dfd3d1"/>
 <path d="m262 91v3h1l-1-3z" fill="#b3a19b"/>
 <path d="m219 94v1h3l-3-1z" fill="#ebd2b0"/>
 <path d="m136 95v1h3l-3-1z" fill="#b0731d"/>
 <path d="m235 95c0.324 4.1617 2.965 7.639 6 3l-6-3z" fill="#fff"/>
 <path d="m135 96v3l13 5c-1.83-6.4458-6.817-7.8676-13-8z" fill="#613323"/>
 <path d="m261 96v3h1l-1-3z" fill="#987c71"/>
 <path d="m285 96l1 1-1-1z" fill="#a79088"/>
 <path d="m42.667 97.333l0.6666 0.3334-0.6666-0.3334z" fill="#d0c2bd"/>
 <path d="m234.33 97.667l0.334 0.6666-0.334-0.6666z" fill="#ebd2b0"/>
 <path d="m9 99v1h12l-12-1z" fill="#eae9e9"/>
 <path d="m34 98l1 1-1-1z" fill="#a79088"/>
 <path d="m108 110h2l9-11c-6.383 0.3494-12.3 3.945-11 11z" fill="#613323"/>
 <path d="m276 99v1h5l-5-1z" fill="#987c71"/>
 <path d="m48 100l1 1-1-1z" fill="#b3a19b"/>
 <path d="m41 114l6-1 5-3c-8.2238-11.641-23.705-9.847-11 4z" fill="#b77939"/>
 <path d="m89 101l1 1-1-1z" fill="#a79088"/>
 <path d="m50 102l-1 5 3-4-2-1z" fill="#7d5c51"/>
 <path d="m260.33 102.67l0.334 0.666-0.334-0.666z" fill="#bca9a2"/>
 <path d="m270 102v18h1c1.349-5.668 2.094-12.835-1-18z" fill="#eae9e9"/>
 <path d="m30 103v4h1l-1-4z" fill="#bca9a2"/>
 <path d="m164 104v9h1l-1-9z" fill="#8f6f64"/>
 <path d="m201 105l-1 12c3.978-2.811 3.567-8.242 1-12z" fill="#7d5c51"/>
 <path d="m210 126c-1.178-11.755-5.313-19.854 11-20-15.852-6.6517-23.077 9.62-11 20z" fill="#94532a"/>
 <path d="m206 129c4.78 0.642 9.164 3.311 14 2.246 3.383-0.745 6.921-1.785 10-3.384 20.688-10.743-10.256-30.175-21.397-18.892-5.216 5.282 2.698 13.517-2.603 20.03z" fill="#a96737"/>
 <path d="m200 107v9h1l-1-9z" fill="#613323"/>
 <path d="m33 110l1 1-1-1z" fill="#a79088"/>
 <path d="m47 113l-5-1 12 39c11.035-8.218 5.1868-16.104-1-25 5.0912 5.137 11.396 11.236 7.5432 19-2.0836 4.199-6.3255 6.956-6.3943 12-0.1675 12.29 7.4099 25.22 13.851 35l-4-1v1l22 10 1-11c-28.477-9.213-16.382-42.035-24.389-63-2.0204-5.29-4.425-11.959-8.6944-15.889-2.7082-2.493-6.0908-2.965-6.9167 0.889z" fill="#f7b12b"/>
 <path d="m122 115v1c5.726 5.068 10.365 4.722 13-3-5.101-1.211-8.583-0.916-13 2z" fill="#a96737"/>
 <path d="m138 112v4h1l-1-4z" fill="#8b5c38"/>
 <path d="m147 112v1h9v1h-9v1l14-2-14-1z" fill="#94532a"/>
 <path d="m59 113l1 1-1-1z" fill="#b19b93"/>
 <path d="m89 113l1 1-1-1z" fill="#bca9a2"/>
 <path d="m119 113c-0.644 3.955 0.497 6.058 4 8l-4-8z" fill="#745144"/>
 <path d="m147 113v1h9l-9-1m56 1c-2.586 5.649-0.53 11.127 5 14l1-1-6-13z" fill="#613323"/>
 <path d="m39 115v4h1l-1-4z" fill="#7d5c51"/>
 <path d="m162 130l-4-1c-1.643 6.802 3.882 13.794 6.396 20 4.634 11.441 8.5 24.6 8.604 37 13.041-1.137 24.584-7.194 38-4-15.761 11.337-47.511 5.88-54.695 30-1.433 4.81-0.688 9.136-0.305 14h1l2-16h2v17h7c4e-3 -5.573-0.455-11.064 5-14l-1 14c24.703-0.204 50.882-2.512 75-7.989 7.558-1.717 20.391-3.88 24.682-11.196 7.678-13.09-2.857-38.376-7.682-50.815h-1c-7.12 14.968-29.923 36.195-45 18-4.646 0.696-9.233 3.383-14 2.771-5.504-0.707-8.01-5.171-12.424-7.748-5.047-2.945-10.609-2.654-15.486-6.704-14.114-11.721-11.711-32.667-8.09-48.319-6.37 1.06-8.631 9.647-6 15z" fill="#d7a55f"/>
 <path d="m92 116c-7.56 7.236-19.941 16.314-22.581 27-1.1937 4.832 0.48 10.106 0.581 15h1l5-15c3.4422-1.89 4.9073-4.072 5-8 4.8681-2.664 14.216-13.456 11-19z" fill="#c3894b"/>
 <path d="m145.67 118.33l0.666 0.334-0.666-0.334z" fill="#a36a26"/>
 <path d="m93 120l-12 15-5 8c-0.3532 5.752-4.8019 10.273-5.6566 16-1.7234 11.547 5.9325 25.884 17.657 28 0.8181-10.017-2.7352-13.59-4.6211-23-2.5657-12.801 3.8457-26.118 14.621-33l-1-4-6 1 5-3-3-5z" fill="#d7a55f"/>
 <path d="m263.33 120.67l0.334 0.666-0.334-0.666z" fill="#8f6f64"/>
 <path d="m123 121l2 4 3-1v-1l-5-2z" fill="#7d5c51"/>
 <path d="m42 123l1 1-1-1z" fill="#b3a19b"/>
 <path d="m264.33 123.67l0.334 0.666-0.334-0.666z" fill="#987c71"/>
 <path d="m102 125c-0.268 4.616 2.806 8.88 7 5l-5-5h-2m27 0l-3 8 9-1-6-7z" fill="#e69a07"/>
 <path d="m53 126l7.4205 13-6.4205 14c10.879-7.848 9.4847-19.548-1-27z" fill="#e4b151"/>
 <path d="m265.33 127.67l0.334 0.666-0.334-0.666z" fill="#a1887e"/>
 <path d="m74 128l1 1-1-1z" fill="#a79088"/>
 <path d="m181 129v2h5v-2h-5z" fill="#a96737"/>
 <path d="m67.333 131.67l0.3334 0.666-0.3334-0.666z" fill="#987c71"/>
 <path d="m266 131v4h1l-1-4z" fill="#b19b93"/>
 <path d="m110 132l-2 4h10v-1l-8-3z" fill="#e69a07"/>
 <path d="m139 134c-2.056-0.829-3.748-1.493-6.005-1.446-17.916 0.373-0.529 14.439 6.005 1.446z" fill="#f7b12b"/>
 <path d="m70 133l1 1-1-1z" fill="#a79088"/>
 <path d="m108 172v-2l-9-5v-2l13 5 5-11-12-7 13 3-1-13-18 1 4-4c-3.7806-6.412-10.213 1.766-12.428 6-6.1115 11.685 2.1085 33.202 17.428 29z" fill="#d7a55f"/>
 <path d="m195 133v4l4-4h-4z" fill="#a47451"/>
 <path d="m153 134c-9.894 5.187-19.836 10.946-31 8 0 9.888-1.493 33.512-13 37l-12 4v28l-6-4c7.1525 11.599 19.175 3.442 27-2-6.035 5.981-10.41 8.975-19 9 7.049 16.287 29.33 12 44 12v-15l-22-2c2.981-6.43 22.571-29.378 5.985-33.682-2.509-0.651-5.415-0.318-7.985-0.318v-4c14.86 0.041 17.268 8.028 17 21l6-1v1c-7.824 1.821-11.003 6.769-14 14 4.731 0.373 12.409 2.991 16.83 0.883 16.261-7.755 13.53-33.157 9.17-46.883l1-1c9.282 7.706 5.215 23.562 5 34 2.794-1.165 7.015-2.416 8.396-5.39 1.546-3.332-0.132-8.122-0.371-11.61-0.901-13.114-6.556-31.778-15.025-42z" fill="#f7b12b"/>
 <path d="m266 135v9h1l-1-9z" fill="#987c71"/>
 <path d="m305 136v8h6v-1h-5c0.859-5.261 4.318-5.771 9-7h-10z" fill="#eae9e9"/>
 <path d="m143 136v1h5l-5-1z" fill="#8b5c38"/>
 <path d="m215 136v15h1l-1-15z" fill="#a77948"/>
 <path d="m49.333 139.67l0.3334 0.666-0.3334-0.666z" fill="#a1887e"/>
 <path d="m65 139v9h1l-1-9z" fill="#94532a"/>
 <path d="m184 142v2l4 1v-4l-4 1m44 0v4h4l-4-4z" fill="#a96737"/>
 <path d="m126 143v1h6l-6-1z" fill="#a47451"/>
 <path d="m166 143c1.358 16.625 10.39 20.748 23.83 26.589 3.54 1.538 5.682 5.203 9.171 6.954 6.429 3.227 12.665-0.043 18.999-1.543 8.093 14.753 30.792 4.015 38-6-8.469 3.768-15.82 11.3-26 8.362-4.528-1.307-7.596-5.431-12-6.672-5.836-1.645-12.489 4.58-15-3.69h-1v3l-9-8c-15.886 2.006-19.52-7.173-27-19z" fill="#c3894b"/>
 <path d="m211 143l-8 12 10 3-2-15z" fill="#a96737"/>
 <path d="m50 145v12h1l-1-12z" fill="#8f6f64"/>
 <path d="m87 147c0.7036 13.42-1.5195 31.647 18 27v-1c-7.2214-1.736-13.231-6.627-15.362-14-1.1527-3.988 0.6547-9.123-2.6381-12z" fill="#c3894b"/>
 <path d="m241 147v4l4-1v-2l-4-1z" fill="#a96737"/>
 <path d="m65 148v6h1l-1-6z" fill="#c58627"/>
 <path d="m265 149v3h1l-1-3z" fill="#b19b93"/>
 <path d="m196 160c3.97 8.313 11.02 8.009 19 7-0.538-11.56-10.89-12.91-19-7z" fill="#d7a55f"/>
 <path d="m230 159h4v-4l-4 4z" fill="#a96737"/>
 <path d="m50 157v8h1l-1-8z" fill="#a79088"/>
 <path d="m281 159c-2.273 8.786-1.531 16.029 3 24h1l-4-24z" fill="#eae9e9"/>
 <path d="m54 160v6h1l-1-6z" fill="#94532a"/>
 <path d="m55 164c0.0788 9.394 3.0694 24.543 13 28l-13-28z" fill="#e69a07"/>
 <path d="m271 165l-1 11h1v-11z" fill="#7d5c51"/>
 <path d="m117 166c-3.634 5.807-8.283 10.611-15 12.714-2.4338 0.762-6.2157-0.161-8.2585 1.352-8.3005 6.15-3.6926 26.182 3.2585 30.934v-28c4.67-0.013 9.204 0.214 12-4 5.349-0.935 9.864-7.614 8-13z" fill="#e69a07"/>
 <path d="m51.333 168.67l0.3334 0.666-0.3334-0.666z" fill="#a79088"/>
 <path d="m272 170c-0.835 10.591 4.736 23.952 1.297 33.996-5.405 15.785-35.83 16.467-49.297 19.004v9l42.961-12.319 13.292-10.685-4.087-20.996-4.166-18z" fill="#613323"/>
 <path d="m160 171v16h1l-1-16m-41 3v1h7l-7-1z" fill="#a36a26"/>
 <path d="m274.33 175.67l0.334 0.666-0.334-0.666z" fill="#b19b93"/>
 <path d="m50.333 176.67l0.3334 0.666-0.3334-0.666z" fill="#a1887e"/>
 <path d="m168 176v5h1l-1-5z" fill="#c58627"/>
 <path d="m97 179v1h4l-4-1z" fill="#b0731d"/>
 <path d="m49.333 180.67l0.3334 0.666-0.3334-0.666z" fill="#b19b93"/>
 <path d="m136 180v6h1l-1-6z" fill="#a36a26"/>
 <path d="m275.33 180.67l0.334 0.666-0.334-0.666z" fill="#b19b93"/>
 <path d="m53 181c-0.9174 7.259-3.8419 21.451 0.7423 27.79 3.9589 5.474 13.085 7.559 19.258 9.21l-4-3v-1l2-1c-5.5669-9.791-8.1111-25.308-18-32z" fill="#c3894b"/>
 <path d="m169 183v6h1v-3l5 3v-3l-6-3z" fill="#745144"/>
 <path d="m48 185v4h1l-1-4z" fill="#a79088"/>
 <path d="m147 227c3.884 0 10.018 1.581 11-3h-1v2h-1c-1.08-25.553 21.859-34.924 44-40-5.562-2.312-13.386 0.513-19 2.001-19.011 5.037-38.061 17.126-34 38.999z" fill="#c3894b"/>
 <path d="m272 185v4h1l-1-4z" fill="#a77948"/>
 <path d="m276.33 185.67l0.334 0.666-0.334-0.666z" fill="#d0c2bd"/>
 <path d="m276 187v4h1l-1-4z" fill="#7d5c51"/>
 <path d="m85 191l3-2-3 2z" fill="#a36a26"/>
 <path d="m291 189v1c7.613 4.012 15.904 5.416 24 2v-1c-9.237 1.791-15.074 0.436-24-2z" fill="#eae9e9"/>
 <path d="m135 190v4l7-2v-1l-7-1z" fill="#e4b151"/>
 <path d="m51 192v13h1l-1-13z" fill="#a96737"/>
 <path d="m86 192v11h1l-1-11z" fill="#a36a26"/>
 <path d="m273 192v13h1l-1-13z" fill="#a47451"/>
 <path d="m66 193c4.9439 6.869 12.85 11.064 21 13-2.002-6.243-14.725-12.531-21-13z" fill="#e69a07"/>
 <path d="m155 193v3h1l-1-3z" fill="#b0731d"/>
 <path d="m47 195v14h1l-1-14m230 1v4h1l-1-4z" fill="#c6b6b0"/>
 <path d="m66 200l3 14v1c8.9574 4.226 16.782 6.915 27 7-7.5881-11.144-17.534-16.827-30-22z" fill="#d7a55f"/>
 <path d="m6 203v1l14-2-14 1z" fill="#eae9e9"/>
 <path d="m97 212v1c9.023 2.148 15.591-0.39 21-8-8.372 3.88-11.146 8.239-21 7z" fill="#e4b151"/>
 <path d="m46 209l1 1-1-1z" fill="#b19b93"/>
 <path d="m92 210c2.4682 5.184 5.576 8.893 11 11-2.79-5.282-5.248-8.871-11-11z" fill="#e69a07"/>
 <path d="m159 210l-5 30 60-6 1-9h-11l-3 10h-1l2-9-30 1 1-14c-5.67 1.882-4 9.009-4 14h-8v-17h-2z" fill="#613323"/>
 <path d="m142 214c6e-3 9.446 1.378 14.723-4 23 8.878-4.377 7.356-15.237 4-23z" fill="#745144"/>
 <path d="m283 215l-2 15h1l1-15z" fill="#eae9e9"/>
 <path d="m40 216v5h1l-1-5z" fill="#987c71"/>
 <path d="m64 220l5-3-5 3z" fill="#745144"/>
 <path d="m271.67 216.33l0.666 0.334-0.666-0.334z" fill="#987c71"/>
 <path d="m168 217v10h1l-1-10z" fill="#8b5c38"/>
 <path d="m63 220l-1 9h1v-9z" fill="#7d5c51"/>
 <path d="m220 223v1h3v8h1v-9h-4z" fill="#745144"/>
 <path d="m209 224v1h6c-0.06 3.583-2.296 8.075 2 9l-1-10h-7z" fill="#7d5c51"/>
 <path d="m216 224v9c6.379-0.353 6.979-3.114 7-9h-7z" fill="#613323"/>
 <path d="m96 239l5-12h5l2 10h1l-2-12c-9.082 0.108-8.2035 6.738-11 14m99-14v1h7l-2 9h1l3-10h-9z" fill="#745144"/>
 <path d="m45 226l1 1-1-1z" fill="#b19b93"/>
 <path d="m121 226v1h22l-22-1z" fill="#c58627"/>
 <path d="m179 226v1h8l-8-1z" fill="#8b5c38"/>
 <path d="m247.67 226.33l0.666 0.334-0.666-0.334z" fill="#c6b6b0"/>
 <path d="m156 227l-4 13c4.091-2.703 5.861-8.436 4-13z" fill="#745144"/>
 <path d="m240.67 228.33l0.666 0.334-0.666-0.334z" fill="#d0c2bd"/>
 <path d="m231.67 230.33l0.666 0.334-0.666-0.334z" fill="#b19b93"/>
 <path d="m55.667 231.33l0.6666 0.334-0.6666-0.334z" fill="#8f6f64"/>
 <path d="m226 231v1h3l-3-1z" fill="#a1887e"/>
 <path d="m58.667 232.33l0.6666 0.334-0.6666-0.334z" fill="#8f6f64"/>
 <path d="m221.67 232.33l0.666 0.334-0.666-0.334z" fill="#a1887e"/>
 <path d="m217.67 233.33l0.666 0.334-0.666-0.334z" fill="#c6b6b0"/>
 <path d="m65.667 234.33l0.6666 0.334-0.6666-0.334z" fill="#a79088"/>
 <path d="m210 234v1h3l-3-1z" fill="#a1887e"/>
 <path d="m297 234c3.544 5.773 10.058 5.415 16 4v-1l-16-3m-231 1c3.8463 4.162 8.7191 4.557 14 3l-14-3z" fill="#eae9e9"/>
 <path d="m70.667 235.33l0.6666 0.334-0.6666-0.334m132.33-0.333v1h3l-3-1z" fill="#8f6f64"/>
 <path d="m74 236v1h3l-3-1z" fill="#bca9a2"/>
 <path d="m124 236v1l14 1v-1l-14-1z" fill="#7d5c51"/>
 <path d="m197 236v1h3l-3-1z" fill="#b19b93"/>
 <path d="m80 237v1h3l-3-1m108 0v1h4l-4-1z" fill="#bca9a2"/>
 <path d="m87 238v1h5l-5-1z" fill="#a1887e"/>
 <path d="m179 238v1h3l-3-1z" fill="#987c71"/>
 <path d="m96 239v1h4l-4-1z" fill="#b19b93"/>
 <path d="m100 239v1h5l-5-1z" fill="#7d5c51"/>
 <path d="m164 239v1h7l-7-1z" fill="#8f6f64"/>
 <path d="m110 240v1h8l-8-1z" fill="#bca9a2"/>
 <path d="m118 240v1h32l-32-1z" fill="#745144"/>
 <path d="m150 240v1h8l-8-1z" fill="#b19b93"/>
</svg>
